{"title":"The.Driftless.Area.2015.WEB-DL.XviD.MP3-FGT","uid":14433126,"size":1037601226,"categoryP":"video","categoryS":"movies","magnet":"?xt=urn:btih:e8a5ec630ded56a417503ddd4da3dc7a79d9f1d8&amp;dn=The.Driftless.Area.2015.WEB-DL.XviD.MP3-FGT&amp;tr=udp%3A%2F%2Ftracker.leechers-paradise.org%3A6969&amp;tr=udp%3A%2F%2Fzer0day.ch%3A1337&amp;tr=udp%3A%2F%2Fopen.demonii.com%3A1337&amp;tr=udp%3A%2F%2Ftracker.coppersurfer.tk%3A6969&amp;tr=udp%3A%2F%2Fexodus.desync.com%3A6969","seeders":0,"leechers":1,"uploader":".BONE.","files":1,"time":1461625008,"description":"\n\r\n\r\n\r\n[mediainfo]\r\nVideo\r\nID                                       : 0\r\nFormat                                   : MPEG-4 Visual\r\nFormat profile                           :   \r\nFormat settings, BVOP                    : No\r\nFormat settings, QPel                    : No\r\nFormat settings, GMC                     : No warppoints\r\nFormat settings, Matrix                  : Default (H.263)\r\nCodec ID                                 : XVID\r\nCodec ID/Hint                            : XviD\r\nDuration                                 : 1h 35mn\r\nBit rate                                 : 1 242 Kbps\r\nWidth                                    : 720 pixels\r\nHeight                                   : 304 pixels\r\nDisplay aspect ratio                     : 2.40:1\r\nFrame rate                               : 23.976 fps\r\nColor space                              : YUV\r\nChroma subsampling                       : 4:2:0\r\nBit depth                                : 8 bits\r\nScan type                                : Progressive\r\nCompression mode                         : Lossy\r\nBits/(Pixel*Frame)                       : 0.237\r\nStream size                              : 850 MiB (86%)\r\nWriting library                          : Lavc56.13.100\r\n\r\nAudio\r\nID                                       : 1\r\nFormat                                   : MPEG Audio\r\nFormat version                           : Version 1\r\nFormat profile                           : Layer 3\r\nMode                                     : Joint stereo\r\nMode extension                           : MS Stereo\r\nCodec ID                                 : 55\r\nCodec ID/Hint                            : MP3\r\nDuration                                 : 1h 35mn\r\nBit rate mode                            : Constant\r\nBit rate                                 : 192 Kbps\r\nChannel(s)                               : 2 channels\r\nSampling rate                            : 48.0 KHz\r\nCompression mode                         : Lossy\r\nStream size                              : 131 MiB (13%)\r\nAlignment                                : Aligned on interleaves\r\nInterleave, duration                     : 24 ms (0.58 video frame)\r\nInterleave, preload duration             : 504 ms\r\nWriting library                          : LAME3.99.5\r\n\r\n[/mediainfo]\r\n \nhttp://www.imdb.com/title/tt3687304/\r\n\r\nA bartender comes back to his hometown after his parents die, and finds himself in a dangerous situation involving a mysterious woman and a violent criminal","torrent":{"xt":"urn:btih:e8a5ec630ded56a417503ddd4da3dc7a79d9f1d8","amp;dn":"The.Driftless.Area.2015.WEB-DL.XviD.MP3-FGT","amp;tr":["udp%3A%2F%2Ftracker.leechers-paradise.org%3A6969","udp%3A%2F%2Fzer0day.ch%3A1337","udp%3A%2F%2Fopen.demonii.com%3A1337","udp%3A%2F%2Ftracker.coppersurfer.tk%3A6969","udp%3A%2F%2Fexodus.desync.com%3A6969"],"infoHash":"e8a5ec630ded56a417503ddd4da3dc7a79d9f1d8","infoHashBuffer":{"type":"Buffer","data":[232,165,236,99,13,237,86,164,23,80,61,221,77,163,220,122,121,217,241,216]},"announce":[],"urlList":[]}}